<svg id="Capa_1" enable-background="new 0 0 511.995 511.995" height="512" viewBox="0 0 511.995 511.995" width="512" xmlns="http://www.w3.org/2000/svg"><g><path d="m338.939 17.755-65.728 35.039-.41.234c-19.613 10.46-31.801 30.763-31.801 52.97 0 33.091 26.909 60 60 60s60-26.909 60-60v-75z" fill="#cdd2e1"/><path d="m361 105.998-30 30v120h90v-150z" fill="#2d4051"/><path d="m376 495.998h-30c-8.291 0-15-6.709-15-15v-90c0-8.291 6.709-15 15-15s15 6.709 15 15v75h15c8.291 0 15 6.709 15 15s-6.709 15-15 15z" fill="#2d4051"/><path d="m166 495.998h-30c-8.291 0-15-6.709-15-15v-90c0-8.291 6.709-15 15-15s15 6.709 15 15v75h15c8.291 0 15 6.709 15 15s-6.709 15-15 15z" fill="#415e77"/><path d="m67.295 255.998h-7.295c-33.091 0-60-26.909-60-60s26.909-60 60-60h76c8.291 0 15 6.709 15 15s-6.709 15-15 15h-76c-16.538 0-30 13.462-30 30s13.462 30 30 30h7.295c8.291 0 16 6.709 16 15s-7.709 15-16 15z" fill="#415e77"/><path d="m445.932 268.112c-13.345-43.14-53.496-72.114-99.932-72.114h-.029-104.971-104.971c-.015 0-.015 0-.029 0-46.436 0-87.587 28.975-100.932 72.114-10.283 33.223-4.673 67.881 15.381 95.083 31.567 42.832 96.61 55.122 141.552 26.323 13.96-8.965 27.437-13.521 40.02-13.521h8.979 8.979c12.583 0 26.06 4.556 40.034 13.535 16.802 10.767 36.152 16.465 55.986 16.465 33.179 0 64.79-15.996 84.551-42.803 20.054-27.201 25.665-61.859 15.382-95.082z" fill="#f2f6fc"/><g fill="#dce1eb"><path d="m290.014 389.533c16.802 10.767 36.152 16.465 55.986 16.465 33.179 0 64.79-15.996 84.551-42.803 20.054-27.202 25.664-61.86 15.381-95.083-13.345-43.14-53.496-72.114-99.932-72.114h-.029-104.971v180h8.979c12.584 0 26.06 4.555 40.035 13.535z"/><path d="m497 15.998h-151c-8.284 0-15 6.716-15 15v105h75c57.662 0 105.629-46.739 105.995-104.317.054-8.527-6.468-15.683-14.995-15.683z"/><path d="m136 345.998c-24.814 0-45-20.186-45-45s20.186-45 45-45 45 20.186 45 45-20.186 45-45 45z"/></g><path d="m346 345.998c-24.814 0-45-20.186-45-45s20.186-45 45-45 45 20.186 45 45-20.186 45-45 45z" fill="#cdd2e1"/></g></svg>